<svg width="200" height="200" viewBox="0 0 200 200" fill="none" xmlns="http://www.w3.org/2000/svg">
<path d="M101.406 171H108.139V192.818H101.108C98.9915 192.818 97.1804 192.381 95.6747 191.508C94.169 190.641 93.0149 189.395 92.2124 187.768C91.4098 186.149 91.0085 184.21 91.0085 181.952C91.0085 179.679 91.4134 177.722 92.223 176.082C93.0327 174.448 94.2116 173.191 95.7599 172.31C97.3082 171.437 99.1903 171 101.406 171ZM105.497 173.344H101.577C99.7727 173.344 98.2777 173.692 97.0916 174.388C95.9055 175.084 95.0213 176.075 94.4389 177.36C93.8565 178.646 93.5653 180.176 93.5653 181.952C93.5653 183.713 93.853 185.229 94.4283 186.501C95.0036 187.779 95.8629 188.759 97.0064 189.441C98.1499 190.13 99.5739 190.474 101.278 190.474H105.497V173.344Z" fill="white"/>
<path d="M63.2657 185.25L71.6152 165.092L74.0561 166.104L65.7066 186.261L63.2657 185.25Z" fill="white"/>
<path d="M34.6831 158.234C34.0101 159.088 33.7841 160.047 34.0051 161.112C34.2261 162.176 34.8036 163.176 35.7377 164.11C36.4207 164.793 37.1288 165.28 37.862 165.571C38.5902 165.857 39.2908 165.95 39.9638 165.85C40.6317 165.744 41.2118 165.446 41.7039 164.953C42.1157 164.542 42.3719 164.09 42.4723 163.597C42.5627 163.105 42.5501 162.606 42.4346 162.098C42.3141 161.596 42.1459 161.112 41.9299 160.645C41.709 160.182 41.493 159.771 41.2821 159.409L40.137 157.42C39.8407 156.913 39.5394 156.321 39.2331 155.643C38.9217 154.96 38.7007 154.231 38.5702 153.458C38.4295 152.685 38.4597 151.901 38.6606 151.108C38.8614 150.314 39.3235 149.556 40.0466 148.833C40.8803 147.999 41.8521 147.464 42.962 147.228C44.0668 146.987 45.2344 147.085 46.4648 147.522C47.6902 147.954 48.8955 148.762 50.0807 149.948C51.1856 151.052 51.964 152.187 52.416 153.352C52.863 154.513 52.9986 155.643 52.8228 156.742C52.642 157.837 52.1599 158.837 51.3764 159.741L49.448 157.812C49.9803 157.179 50.2666 156.501 50.3067 155.778C50.3369 155.055 50.1812 154.337 49.8397 153.624C49.4881 152.911 49.006 152.248 48.3933 151.635C47.6802 150.922 46.9244 150.397 46.1259 150.061C45.3223 149.729 44.5464 149.606 43.7981 149.691C43.0448 149.782 42.3869 150.108 41.8245 150.671C41.3122 151.183 41.0385 151.743 41.0034 152.351C40.9682 152.958 41.0837 153.596 41.3499 154.264C41.616 154.932 41.945 155.612 42.3367 156.305L43.6927 158.746C44.5514 160.298 45.011 161.747 45.0712 163.093C45.1315 164.439 44.6418 165.631 43.6023 166.671C42.7385 167.535 41.7516 168.055 40.6418 168.23C39.5218 168.406 38.3869 168.276 37.2368 167.839C36.0767 167.402 35.0045 166.691 34.0202 165.707C33.0258 164.712 32.3202 163.65 31.9034 162.52C31.4815 161.395 31.3509 160.3 31.5116 159.236C31.6673 158.166 32.1218 157.229 32.8751 156.426L34.6831 158.234Z" fill="white"/>
<path d="M37.0372 133.526L16.8798 141.876L14.0586 135.065C13.4036 133.483 13.1536 132.073 13.3086 130.832C13.4544 129.588 13.909 128.523 14.6724 127.638C15.4358 126.753 16.4114 126.065 17.599 125.573C18.7867 125.081 19.9666 124.876 21.1389 124.96C22.3084 125.036 23.3898 125.457 24.3831 126.222C25.3698 126.989 26.1879 128.157 26.8375 129.725L28.8597 134.607L26.6943 135.504L24.7048 130.701C24.2563 129.618 23.7092 128.826 23.0634 128.325C22.4176 127.824 21.7153 127.558 20.9565 127.526C20.1884 127.49 19.4009 127.64 18.5938 127.974C17.7867 128.308 17.1274 128.758 16.616 129.324C16.1018 129.883 15.8015 130.568 15.7152 131.381C15.6222 132.195 15.8027 133.151 16.2566 134.247L18.0341 138.538L36.0261 131.085L37.0372 133.526Z" fill="white"/>
<path d="M29 105.295L7.18182 105.295L7.18182 102.653L26.6562 102.653L26.6563 92.5114H29L29 105.295Z" fill="white"/>
<path d="M28.2007 59.3001C30.3266 60.1807 32.0049 61.3256 33.2355 62.7347C34.466 64.1439 35.224 65.6917 35.5094 67.3782C35.7949 69.0646 35.5815 70.7674 34.8694 72.4866C34.1573 74.2057 33.1041 75.5607 31.7098 76.5513C30.3154 77.542 28.685 78.1005 26.8184 78.2268C24.9519 78.3531 22.9556 77.9759 20.8297 77.0953C18.7037 76.2147 17.0254 75.0698 15.7949 73.6607C14.5643 72.2515 13.8063 70.7037 13.5209 69.0173C13.2355 67.3308 13.4488 65.628 14.1609 63.9088C14.873 62.1897 15.9262 60.8348 17.3206 59.8441C18.7149 58.8534 20.3454 58.2949 22.2119 58.1686C24.0784 58.0424 26.0747 58.4195 28.2007 59.3001ZM27.2222 61.6623C25.4768 60.9393 23.8828 60.6212 22.4401 60.7078C21.0002 60.7878 19.7666 61.1955 18.7394 61.9308C17.7149 62.6596 16.9499 63.6342 16.4443 64.8547C15.9388 66.0751 15.7892 67.3085 15.9956 68.5548C16.2047 69.7945 16.7887 70.9551 17.7476 72.0365C18.7092 73.1113 20.0627 74.0101 21.8081 74.7331C23.5535 75.4561 25.1462 75.7775 26.5862 75.6975C28.0288 75.6109 29.2624 75.2032 30.2869 74.4744C31.3141 73.7391 32.0805 72.7612 32.586 71.5408C33.0915 70.3203 33.2397 69.0902 33.0306 67.8505C32.8242 66.6042 32.2402 65.4436 31.2786 64.3688C30.3198 63.2875 28.9676 62.3853 27.2222 61.6623Z" fill="white"/>
<path d="M44.8791 54.7117L29.4513 39.2839L34.6643 34.071C35.8695 32.8657 37.0648 32.0823 38.25 31.7207C39.4302 31.3541 40.5627 31.3415 41.6474 31.683C42.7322 32.0245 43.7291 32.6498 44.6381 33.5588C45.5471 34.4678 46.1673 35.4596 46.4987 36.5343C46.8302 37.6091 46.8126 38.7315 46.446 39.9016C46.0744 41.0667 45.2909 42.2469 44.0957 43.4422L39.8772 47.6607L38.1897 45.9733L42.348 41.815C43.1716 40.9914 43.714 40.208 43.9752 39.4647C44.2413 38.7164 44.2664 38.0083 44.0505 37.3404C43.8345 36.6624 43.4177 36.0145 42.8 35.3968C42.1823 34.7791 41.5269 34.3548 40.8339 34.1237C40.1408 33.8927 39.4151 33.9053 38.6568 34.1614C37.8934 34.4125 37.0949 34.9549 36.2613 35.7886L32.9768 39.073L46.7473 52.8435L44.8791 54.7117ZM45.2106 40.5193L55.9377 43.6531L53.7682 45.8226L43.1013 42.6286L45.2106 40.5193Z" fill="white"/>
<path d="M66.988 36.8242L58.6385 16.6668L70.8038 11.6278L71.7007 13.7931L61.9764 17.8211L64.7976 24.6321L73.892 20.865L74.7889 23.0304L65.6945 26.7974L68.532 33.6478L78.4138 29.5546L79.3107 31.7199L66.988 36.8242Z" fill="white"/>
<path d="M98.5938 29L91.8608 29V7.18182L98.892 7.18182C101.009 7.18182 102.82 7.61861 104.325 8.49219C105.831 9.35866 106.985 10.6051 107.788 12.2315C108.59 13.8509 108.991 15.7898 108.991 18.0483C108.991 20.321 108.587 22.2777 107.777 23.9183C106.967 25.5518 105.788 26.8089 104.24 27.6896C102.692 28.5632 100.81 29 98.5938 29ZM94.5028 26.6562L98.4233 26.6563C100.227 26.6563 101.722 26.3082 102.908 25.6122C104.094 24.9162 104.979 23.9254 105.561 22.6399C106.143 21.3544 106.435 19.8239 106.435 18.0483C106.435 16.2869 106.147 14.7706 105.572 13.4993C104.996 12.2209 104.137 11.2408 102.994 10.5589C101.85 9.87003 100.426 9.52557 98.7216 9.52557H94.5028V26.6562Z" fill="white"/>
<path d="M136.734 14.7502L128.385 34.9075L125.944 33.8965L134.293 13.7391L136.734 14.7502Z" fill="white"/>
<path d="M165.317 41.7661C165.99 40.9123 166.216 39.9531 165.995 38.8884C165.774 37.8238 165.196 36.8244 164.262 35.8903C163.579 35.2073 162.871 34.7201 162.138 34.4288C161.41 34.1426 160.709 34.0497 160.036 34.1501C159.368 34.2556 158.788 34.5544 158.296 35.0466C157.884 35.4584 157.628 35.9104 157.528 36.4025C157.437 36.8947 157.45 37.3944 157.565 37.9016C157.686 38.4038 157.854 38.8884 158.07 39.3555C158.291 39.8175 158.507 40.2293 158.718 40.5909L159.863 42.5797C160.159 43.0869 160.461 43.6795 160.767 44.3575C161.078 45.0405 161.299 45.7687 161.43 46.5421C161.57 47.3155 161.54 48.0989 161.339 48.8924C161.139 49.6859 160.677 50.4442 159.953 51.1674C159.12 52.0011 158.148 52.5359 157.038 52.7719C155.933 53.013 154.766 52.9151 153.535 52.4782C152.31 52.0463 151.104 51.2377 149.919 50.0525C148.814 48.9476 148.036 47.8127 147.584 46.6475C147.137 45.4874 147.001 44.3575 147.177 43.2576C147.358 42.1628 147.84 41.1634 148.624 40.2595L150.552 42.1879C150.02 42.8207 149.733 43.4987 149.693 44.2219C149.663 44.9451 149.819 45.6632 150.16 46.3763C150.512 47.0895 150.994 47.7524 151.607 48.3651C152.32 49.0782 153.076 49.603 153.874 49.9395C154.678 50.271 155.454 50.394 156.202 50.3086C156.955 50.2182 157.613 49.8918 158.176 49.3293C158.688 48.8171 158.962 48.2571 158.997 47.6494C159.032 47.0418 158.916 46.404 158.65 45.736C158.384 45.0681 158.055 44.3876 157.663 43.6946L156.307 41.2538C155.449 39.702 154.989 38.2532 154.929 36.9072C154.869 35.5613 155.358 34.3686 156.398 33.329C157.262 32.4652 158.248 31.9454 159.358 31.7697C160.478 31.5939 161.613 31.7245 162.763 32.1614C163.923 32.5983 164.996 33.3089 165.98 34.2933C166.974 35.2876 167.68 36.3498 168.097 37.4798C168.518 38.6047 168.649 39.6995 168.488 40.7642C168.333 41.8339 167.878 42.7705 167.125 43.574L165.317 41.7661Z" fill="white"/>
<path d="M162.963 66.4737L183.12 58.1242L185.941 64.9352C186.596 66.5166 186.846 67.9275 186.691 69.1679C186.546 70.4121 186.091 71.4768 185.328 72.3618C184.564 73.2469 183.589 73.9355 182.401 74.4274C181.213 74.9194 180.033 75.1237 178.861 75.0404C177.692 74.9636 176.61 74.5429 175.617 73.7781C174.63 73.0106 173.812 71.8428 173.162 70.2746L171.14 65.3927L173.306 64.4958L175.295 69.2989C175.744 70.3816 176.291 71.1735 176.937 71.6748C177.582 72.176 178.285 72.4424 179.043 72.4741C179.812 72.5096 180.599 72.3602 181.406 72.0258C182.213 71.6915 182.873 71.2417 183.384 70.6762C183.898 70.1173 184.198 69.4317 184.285 68.6195C184.378 67.8046 184.197 66.8492 183.743 65.7534L181.966 61.4621L163.974 68.9146L162.963 66.4737Z" fill="white"/>
<path d="M171 94.7045H192.818V97.3466H173.344V107.489H171V94.7045Z" fill="white"/>
<path d="M171.799 140.7C169.673 139.819 167.995 138.674 166.765 137.265C165.534 135.856 164.776 134.308 164.491 132.622C164.205 130.935 164.418 129.233 165.131 127.513C165.843 125.794 166.896 124.439 168.29 123.449C169.685 122.458 171.315 121.899 173.182 121.773C175.048 121.647 177.044 122.024 179.17 122.905C181.296 123.785 182.975 124.93 184.205 126.339C185.436 127.748 186.194 129.296 186.479 130.983C186.765 132.669 186.551 134.372 185.839 136.091C185.127 137.81 184.074 139.165 182.679 140.156C181.285 141.147 179.655 141.705 177.788 141.831C175.922 141.958 173.925 141.58 171.799 140.7ZM172.778 138.338C174.523 139.061 176.117 139.379 177.56 139.292C179 139.212 180.233 138.804 181.261 138.069C182.285 137.34 183.05 136.366 183.556 135.145C184.061 133.925 184.211 132.691 184.004 131.445C183.795 130.205 183.211 129.045 182.252 127.964C181.291 126.889 179.937 125.99 178.192 125.267C176.446 124.544 174.854 124.222 173.414 124.303C171.971 124.389 170.738 124.797 169.713 125.526C168.686 126.261 167.92 127.239 167.414 128.459C166.908 129.68 166.76 130.91 166.969 132.15C167.176 133.396 167.76 134.556 168.721 135.631C169.68 136.713 171.032 137.615 172.778 138.338Z" fill="white"/>
<path d="M155.121 145.288L170.549 160.716L165.336 165.929C164.13 167.134 162.935 167.918 161.75 168.279C160.57 168.646 159.437 168.658 158.353 168.317C157.268 167.975 156.271 167.35 155.362 166.441C154.453 165.532 153.833 164.54 153.501 163.466C153.17 162.391 153.187 161.269 153.554 160.098C153.926 158.933 154.709 157.753 155.904 156.558L160.123 152.339L161.81 154.027L157.652 158.185C156.828 159.009 156.286 159.792 156.025 160.535C155.759 161.284 155.734 161.992 155.95 162.66C156.165 163.338 156.582 163.985 157.2 164.603C157.818 165.221 158.473 165.645 159.166 165.876C159.859 166.107 160.585 166.095 161.343 165.839C162.107 165.587 162.905 165.045 163.739 164.211L167.023 160.927L153.253 147.157L155.121 145.288ZM154.789 159.481L144.062 156.347L146.232 154.177L156.899 157.371L154.789 159.481Z" fill="white"/>
<path d="M133.012 163.176L141.361 183.333L129.196 188.372L128.299 186.207L138.024 182.179L135.202 175.368L126.108 179.135L125.211 176.97L134.306 173.203L131.468 166.352L121.586 170.445L120.689 168.28L133.012 163.176Z" fill="white"/>
</svg>

